<svg width="24" height="24" viewBox="0 0 24 24" fill="none" xmlns="http://www.w3.org/2000/svg">
<path d="M0.999969 12C0.999969 4 3.99997 1 12 1C20 1 23 4 23 12C23 20 20 23 12 23C3.99997 23 0.999969 20 0.999969 12Z" fill="#FF5B13"/>
<path fill-rule="evenodd" clip-rule="evenodd" d="M16.2 6H8C7.61468 5.998 7.23698 6.10736 6.91233 6.31493C6.58768 6.52249 6.32991 6.81941 6.17 7.17C6.4738 7.20924 6.7511 7.36319 6.94506 7.60029C7.13902 7.83739 7.23496 8.13969 7.21323 8.44525C7.1915 8.7508 7.05373 9.03648 6.82816 9.24374C6.60259 9.451 6.3063 9.56415 6 9.56V10.8C6.31771 10.8035 6.62197 10.9287 6.85 11.15C7.00217 11.3198 7.1028 11.5295 7.14011 11.7544C7.17742 11.9794 7.14987 12.2103 7.06068 12.4202C6.97149 12.63 6.82436 12.8101 6.63651 12.9394C6.44866 13.0686 6.22787 13.1417 6 13.15V14.39C6.30446 14.3911 6.59711 14.508 6.81864 14.7168C7.04018 14.9257 7.17404 15.211 7.19311 15.5148C7.21218 15.8187 7.11504 16.1184 6.92135 16.3534C6.72767 16.5883 6.45193 16.7408 6.15 16.78C6.30377 17.1431 6.56142 17.4526 6.89058 17.6696C7.21974 17.8867 7.60572 18.0016 8 18H12.95C14.1541 15.8922 15.8969 14.1424 18 12.93V7.8C17.9974 7.32342 17.8069 6.8671 17.4699 6.53011C17.1329 6.19311 16.6766 6.00262 16.2 6Z" fill="white"/>
</svg>
